<svg xmlns="http://www.w3.org/2000/svg" version="1.0" viewBox="0 0 600 500"><g fill-rule="evenodd" stroke-width="2.5"><path d="M325 210a25 25 0 1 1-50 0 25 25 0 1 1 50 0"/><rect width="70" height="160" x="265" y="240" rx="20" ry="21.3"/></g><g fill-rule="evenodd"><rect width="70" height="20" x="414.3" y="-80.7" rx="10" ry="10" transform="rotate(45)"/><path stroke="#000" d="m389 281.9 141.3 141.4-7 7L381.8 289z"/><path d="m396 430.3 63.6-63.6 63.6 63.6-63.6 63.7z" fill="#ff0"/><path d="m459.6 366.7 63.6 63.6-63.6 63.7z" fill="red"/><path d="m396 430.3 63.6-63.6 63.6 63.6-63.6 63.7z" fill="none" stroke="#000" stroke-linejoin="round"/></g><g fill-rule="evenodd"><rect transform="rotate(-45)" width="70" height="20" x="12.6" y="366.2" rx="10" ry="10"/><path stroke="#000" d="M313.8 211.1 455.2 69.7l7.1 7L321 218.3z"/><path d="m462.3 204-63.6-63.6 63.6-63.6 63.7 63.6z" fill="#ff0"/><path d="m398.7 140.4 63.6-63.6 63.7 63.6z" fill="red"/><path d="m462.3 204-63.6-63.6 63.6-63.6 63.7 63.6z" fill="none" stroke="#000" stroke-linejoin="round"/></g></svg>